<svg width="57" height="71" viewBox="0 0 57 71" fill="none" xmlns="http://www.w3.org/2000/svg">
<path d="M54.0161 1V20.115H22.0361C21.6501 20.1107 21.267 20.1828 20.9089 20.3274C20.5509 20.4719 20.225 20.6859 19.9501 20.957C19.7265 21.1784 19.544 21.4377 19.4111 21.723C19.7085 16.8809 21.5433 12.2601 24.6486 8.53294C27.7538 4.80578 31.9674 2.16679 36.6761 1H54.0161Z" fill="url(#paint0_linear_2_23)"/>
<path d="M37.2604 49.209C36.9966 54.0754 35.1809 58.7293 32.0794 62.4887C28.978 66.248 24.754 68.9151 20.0264 70.099H3.48242V50.988H34.5444C34.9396 50.9932 35.3319 50.9183 35.6974 50.768C36.047 50.6254 36.3643 50.4139 36.6304 50.146C36.898 49.8765 37.1118 49.5585 37.2604 49.209Z" fill="url(#paint1_linear_2_23)"/>
<path d="M56.5882 48.0601C56.6019 51.0081 56.0132 53.9278 54.8582 56.6401C54.6232 57.1861 54.3652 57.7241 54.0852 58.2481C54.0772 58.2701 54.0692 58.2781 54.0692 58.2931C54.0666 58.3044 54.0614 58.315 54.0542 58.3241C51.6782 62.8158 47.8296 66.3537 43.1542 68.3441C40.4359 69.5161 37.5043 70.1126 34.5442 70.0961H20.0332L20.2002 70.0511C24.8884 68.8376 29.0687 66.1635 32.1358 62.4159C35.203 58.6683 36.9977 54.0417 37.2602 49.2061V49.1981C37.5376 48.4764 37.5429 47.6784 37.2752 46.9531C37.2682 46.9381 37.2602 46.9151 37.2522 46.9001C37.1079 46.5514 36.8966 46.2344 36.6302 45.9671C36.3573 45.6938 36.0316 45.4788 35.673 45.3353C35.3144 45.1917 34.9303 45.1226 34.5442 45.1321H22.0362C21.4142 45.1321 20.7922 45.1101 20.1772 45.0491C20.1552 45.0491 20.1322 45.0411 20.1022 45.0411C17.8046 44.8592 15.5534 44.2955 13.4412 43.3731C8.18555 41.1107 4.00064 36.9147 1.7522 31.6531C1.45612 30.9752 1.19774 30.2815 0.978211 29.5751C0.321895 27.4602 -0.0078969 25.2575 0.000213762 23.0431C-0.012966 20.0884 0.583444 17.1628 1.7522 14.4491C4.01369 9.20359 8.19568 5.0216 13.4412 2.76011C14.9722 2.08979 16.58 1.61084 18.2282 1.33411C18.2892 1.31811 18.3342 1.3111 18.3642 1.3031C18.3793 1.29927 18.3947 1.29692 18.4102 1.2961C19.6084 1.09573 20.8213 0.995377 22.0362 0.996098H36.6762C31.9674 2.16289 27.7538 4.80188 24.6486 8.52904C21.5434 12.2562 19.7086 16.877 19.4112 21.7191C19.3792 21.7753 19.3514 21.8338 19.3282 21.8941C19.1784 22.257 19.1036 22.6465 19.1082 23.0391C19.1039 23.4502 19.181 23.858 19.3352 24.2391C19.3513 24.2815 19.3717 24.322 19.3962 24.3601C19.5269 24.6639 19.715 24.9396 19.9502 25.1721C20.224 25.4447 20.5497 25.6596 20.908 25.8042C21.2663 25.9489 21.6499 26.0202 22.0362 26.0141H34.5442C37.498 25.9984 40.4241 26.5843 43.1442 27.7361C48.4329 29.9594 52.6399 34.1664 54.8632 39.4551C55.157 40.1406 55.413 40.8416 55.6302 41.5551C56.2726 43.6634 56.5955 45.8561 56.5882 48.0601Z" fill="url(#paint2_linear_2_23)"/>
<g style="mix-blend-mode:multiply" opacity="0.16">
<g style="mix-blend-mode:multiply" opacity="0.16">
<path d="M37.26 49.209C36.9962 54.0754 35.1805 58.7293 32.0791 62.4887C28.9777 66.248 24.7536 68.9151 20.0261 70.099H15.4141C19.2843 68.2777 22.7009 65.6182 25.4163 62.3134C28.1318 59.0085 30.078 55.141 31.114 50.991H34.5421C34.9373 50.9962 35.3295 50.9213 35.695 50.771C36.0447 50.6284 36.362 50.4169 36.6281 50.149C36.8967 49.8788 37.1112 49.5597 37.26 49.209Z" fill="black"/>
</g>
</g>
<g style="mix-blend-mode:multiply" opacity="0.16">
<g style="mix-blend-mode:multiply" opacity="0.16">
<path d="M40.8331 1C36.5621 4.178 27.8922 11.513 25.7072 20.115H22.0361C21.6501 20.1107 21.267 20.1828 20.9089 20.3274C20.5509 20.4719 20.225 20.6859 19.9501 20.957C19.7265 21.1784 19.544 21.4377 19.4111 21.723C19.7085 16.8809 21.5433 12.2601 24.6486 8.53294C27.7538 4.80578 31.9674 2.16679 36.6761 1H40.8331Z" fill="black"/>
</g>
</g>
<g style="mix-blend-mode:multiply" opacity="0.25">
<g style="mix-blend-mode:multiply" opacity="0.25">
<path d="M54.0166 6.71899V20.119H27.3086C29.5306 19.899 31.7606 19.748 33.9836 19.641C36.2066 19.534 38.4366 19.441 40.6586 19.406C42.8886 19.338 45.1116 19.346 47.3416 19.323C49.3416 19.346 51.3236 19.346 53.3196 19.391C53.3416 18.519 53.3576 17.646 53.3946 16.767C53.4326 15.651 53.4706 14.536 53.5396 13.421C53.6496 11.187 53.7966 8.94899 54.0166 6.71899Z" fill="black"/>
</g>
</g>
<g style="mix-blend-mode:screen" opacity="0.7">
<g style="mix-blend-mode:screen" opacity="0.7">
<path d="M56.5881 48.0602C56.6018 51.0081 56.0131 53.9278 54.8581 56.6402C54.6231 57.1862 54.3651 57.7242 54.0851 58.2482C54.1611 58.0432 54.4111 57.3901 54.7851 56.3891C55.3644 54.6869 55.7436 52.9231 55.9151 51.1332C56.0231 49.9477 56.0462 48.7559 55.9841 47.5671C55.908 46.2525 55.7254 44.9462 55.4381 43.6612C55.2893 42.9966 55.1044 42.3406 54.8841 41.6962C54.6261 41.0292 54.3681 40.3531 54.1101 39.6781C53.5312 38.3508 52.8195 37.0854 51.9861 35.9012C51.1742 34.7012 50.2354 33.5921 49.1861 32.5931C48.1753 31.6236 47.0785 30.748 45.9091 29.9771C44.7999 29.2568 43.6357 28.6252 42.4271 28.0882C41.3385 27.6197 40.2151 27.2366 39.0671 26.9421C37.3196 26.5088 35.5329 26.2522 33.7341 26.1762C32.4141 26.0762 31.6631 26.0172 31.6631 26.0172H34.5381C37.4919 26.0014 40.418 26.5873 43.1381 27.7392C48.4268 29.9625 52.6338 34.1695 54.8571 39.4581C55.1509 40.1436 55.4069 40.8447 55.6241 41.5582C56.2682 43.6652 56.5931 45.8568 56.5881 48.0602Z" fill="white"/>
</g>
</g>
<g style="mix-blend-mode:multiply" opacity="0.25">
<g style="mix-blend-mode:multiply" opacity="0.25">
<path d="M17.6364 70.096H3.48242V55.646C3.65642 56.852 3.7624 58.046 3.8764 59.257C3.9674 60.463 4.0514 61.669 4.1044 62.867C4.1804 64.073 4.19542 65.28 4.24042 66.486L4.27142 69.307C5.18842 69.322 6.10641 69.322 7.02441 69.345C8.20041 69.391 9.37642 69.406 10.5594 69.482C12.9184 69.596 15.2774 69.77 17.6364 70.096Z" fill="black"/>
</g>
</g>
<g style="mix-blend-mode:screen" opacity="0.7">
<g style="mix-blend-mode:screen" opacity="0.7">
<path d="M20.1022 45.041C17.8046 44.8591 15.5534 44.2953 13.4412 43.373C8.18555 41.1106 4.00064 36.9146 1.7522 31.653C1.45612 30.9751 1.19774 30.2814 0.978211 29.575C0.321895 27.4601 -0.0078969 25.2574 0.000213762 23.043C-0.012966 20.0883 0.583444 17.1627 1.7522 14.449C4.01369 9.20346 8.19568 5.02147 13.4412 2.75998C14.9722 2.08966 16.58 1.61072 18.2282 1.33398C17.4014 1.53281 16.5859 1.77582 15.7852 2.06198C10.3533 4.00203 5.85914 7.92976 3.2092 13.053C1.45677 16.4172 0.631857 20.1874 0.819214 23.976C0.87798 25.8797 1.2076 27.7653 1.79819 29.576C1.97219 30.038 2.13921 30.501 2.30621 30.956L2.42722 31.297L2.45819 31.381C2.46518 31.3952 2.47024 31.4104 2.47321 31.426L2.54919 31.593L2.83719 32.238C3.22026 33.0729 3.65858 33.8814 4.1492 34.658C5.07932 36.1366 6.17653 37.5033 7.41919 38.731C8.54709 39.8299 9.78188 40.8134 11.1052 41.667C12.2349 42.3838 13.4196 43.0101 14.6482 43.54C15.6069 43.9477 16.5959 44.28 17.6062 44.534C18.4291 44.7449 19.2622 44.9141 20.1022 45.041Z" fill="white"/>
</g>
</g>
<g style="mix-blend-mode:screen" opacity="0.7">
<g style="mix-blend-mode:screen" opacity="0.7">
<path d="M36.6761 1C31.9674 2.16679 27.7538 4.80578 24.6486 8.53294C21.5433 12.2601 19.7085 16.8809 19.4111 21.723C19.3791 21.7792 19.3513 21.8377 19.3281 21.898L19.3891 21.708C19.3661 21.108 19.3661 20.502 19.3661 19.895C19.4111 19.289 19.4791 18.682 19.5401 18.067C19.6401 17.467 19.7751 16.867 19.8891 16.267C20.0411 15.667 20.2461 15.091 20.4201 14.492C20.6201 13.908 20.8681 13.346 21.1101 12.77C21.3681 12.209 21.6721 11.67 21.9451 11.116C22.2631 10.578 22.6121 10.07 22.9451 9.53899C23.3091 9.03899 23.6881 8.54499 24.0681 8.05899C24.4771 7.58899 24.9101 7.14199 25.3271 6.68599C25.7821 6.26199 26.2271 5.83699 26.7001 5.42699L28.1791 4.297C28.6951 3.956 29.2181 3.63699 29.7491 3.31099C30.3031 3.03799 30.8421 2.742 31.3951 2.476L33.1101 1.80899C33.7101 1.63399 34.2931 1.45999 34.8851 1.30899C35.4771 1.18899 36.0771 1.091 36.6761 1Z" fill="white"/>
</g>
</g>
<g style="mix-blend-mode:screen" opacity="0.7">
<g style="mix-blend-mode:screen" opacity="0.7">
<path d="M37.3974 49.1981C37.4044 49.8201 37.4044 50.4271 37.3894 51.0411C37.3514 51.6561 37.2754 52.2631 37.2074 52.8771C37.1014 53.4838 36.9801 54.0908 36.8434 54.6981C36.6914 55.2981 36.4944 55.8891 36.3194 56.4801C36.1194 57.0721 35.8574 57.6331 35.6194 58.2101C35.3624 58.7791 35.0664 59.3251 34.7774 59.8791C34.4664 60.4171 34.1184 60.9331 33.7844 61.4641C33.4204 61.9721 33.0404 62.4641 32.6614 62.9581C32.2524 63.4291 31.8194 63.8841 31.4024 64.3461C30.9474 64.7791 30.5024 65.2041 30.0294 65.6211L28.5494 66.7591C28.0334 67.1004 27.5101 67.4337 26.9794 67.7591L25.3334 68.6161L23.6114 69.3061L21.8434 69.8221C21.3884 69.9131 20.9434 70.0041 20.4934 70.0801L20.5934 70.0951L20.0694 70.1561C20.0624 70.1641 20.0464 70.1641 20.0394 70.1641L20.0314 70.0951L20.0244 70.0271L20.1984 70.0501C24.8866 68.8366 29.0669 66.1625 32.1341 62.4148C35.2012 58.6672 36.9959 54.0407 37.2584 49.2051V49.1971C37.4056 48.8361 37.4778 48.4489 37.4704 48.0591C37.5254 48.4397 37.5005 48.8276 37.3974 49.1981Z" fill="white"/>
</g>
</g>
<defs>
<linearGradient id="paint0_linear_2_23" x1="54.0161" y1="11.3615" x2="20.8299" y2="11.3615" gradientUnits="userSpaceOnUse">
<stop stop-color="#09EEA9"/>
<stop offset="0.322" stop-color="#3AC648"/>
<stop offset="1" stop-color="#52F01B"/>
</linearGradient>
<linearGradient id="paint1_linear_2_23" x1="2.16508" y1="59.654" x2="34.0515" y2="59.654" gradientUnits="userSpaceOnUse">
<stop stop-color="#34E7B1"/>
<stop offset="0.322" stop-color="#A9EA3E"/>
<stop offset="1" stop-color="#34DD25"/>
</linearGradient>
<linearGradient id="paint2_linear_2_23" x1="28.2942" y1="0.443291" x2="28.2942" y2="71.9621" gradientUnits="userSpaceOnUse">
<stop stop-color="#42FC00"/>
<stop offset="0.162" stop-color="#E7FB00"/>
<stop offset="0.307" stop-color="#B8EE1E"/>
<stop offset="0.446" stop-color="#97F223"/>
<stop offset="0.581" stop-color="#51DB2F"/>
<stop offset="0.712" stop-color="#32C741"/>
<stop offset="0.842" stop-color="#19B11F"/>
<stop offset="0.967" stop-color="#1FD01B"/>
<stop offset="1" stop-color="#00F819"/>
</linearGradient>
</defs>
</svg>
